<svg xmlns="http://www.w3.org/2000/svg" version="1.1" xmlns:xlink="http://www.w3.org/1999/xlink" xmlns:svgjs="http://svgjs.dev/svgjs" viewBox="0 0 2400 800" opacity="0.68"><g fill="hsl(218, 37%, 77%)" transform="matrix(1,0,0,1,0,-103.879150390625)"><path d="M 0 329.0070712634253 Q 347.9787853635511 450 1200 323.75829791005816 Q 1952.0541220218254 450 2400 333.01509534206207 L 2400 800 L 0 800 L 0 329.0731503913956 Z" transform="matrix(1,0,0,1,0,71)" opacity="0.05"></path><path d="M 0 329.0070712634253 Q 347.9787853635511 450 1200 323.75829791005816 Q 1952.0541220218254 450 2400 333.01509534206207 L 2400 800 L 0 800 L 0 329.0731503913956 Z" transform="matrix(1,0,0,1,0,142)" opacity="0.53"></path><path d="M 0 329.0070712634253 Q 347.9787853635511 450 1200 323.75829791005816 Q 1952.0541220218254 450 2400 333.01509534206207 L 2400 800 L 0 800 L 0 329.0731503913956 Z" transform="matrix(1,0,0,1,0,213)" opacity="1.00"></path></g></svg>