<svg xmlns="http://www.w3.org/2000/svg" version="1.1" xmlns:xlink="http://www.w3.org/1999/xlink" xmlns:svgjs="http://svgjs.dev/svgjs" viewBox="0 0 2400 800" opacity="0.68"><g fill="hsla(218, 45%, 68%, 1.00)" transform="matrix(1,0,0,1,0,-95.35244750976562)"><path d="M 0 306.70486123158736 Q 496.1010877682252 450 1200 341.25518130263964 Q 1988.426909450799 450 2400 307.67070838702426 L 2400 800 L 0 800 L 0 336.90546696790926 Z" transform="matrix(1,0,0,1,0,71)" opacity="0.05"></path><path d="M 0 306.70486123158736 Q 496.1010877682252 450 1200 341.25518130263964 Q 1988.426909450799 450 2400 307.67070838702426 L 2400 800 L 0 800 L 0 336.90546696790926 Z" transform="matrix(1,0,0,1,0,142)" opacity="0.53"></path><path d="M 0 306.70486123158736 Q 496.1010877682252 450 1200 341.25518130263964 Q 1988.426909450799 450 2400 307.67070838702426 L 2400 800 L 0 800 L 0 336.90546696790926 Z" transform="matrix(1,0,0,1,0,213)" opacity="1.00"></path></g></svg>