<svg xmlns="http://www.w3.org/2000/svg" version="1.1" xmlns:xlink="http://www.w3.org/1999/xlink" xmlns:svgjs="http://svgjs.dev/svgjs" viewBox="0 0 2400 800" opacity="0.34"><defs><linearGradient x1="50%" y1="0%" x2="50%" y2="100%" id="sssurf-grad"><stop stop-color="hsl(265, 55%, 30%)" stop-opacity="1" offset="0%"></stop><stop stop-color="hsla(265, 20%, 71%, 1.00)" stop-opacity="1" offset="100%"></stop></linearGradient></defs><g fill="url(#sssurf-grad)" transform="matrix(1,0,0,1,0,-33.468414306640625)"><path d="M 0 276.9367873479169 Q 450 505.6842187692249 600 296.6038701946909 Q 1050 607.3440143333389 1200 319.93056284787826 Q 1650 606.6574598022412 1800 346.27770466191566 Q 2250 538.36706919887 2400 307.3651755869233 L 2400 800 L 0 800 L 0 307.95133235941285 Z" transform="matrix(1,0,0,1,0,38)" opacity="0.05"></path><path d="M 0 276.9367873479169 Q 450 505.6842187692249 600 296.6038701946909 Q 1050 607.3440143333389 1200 319.93056284787826 Q 1650 606.6574598022412 1800 346.27770466191566 Q 2250 538.36706919887 2400 307.3651755869233 L 2400 800 L 0 800 L 0 307.95133235941285 Z" transform="matrix(1,0,0,1,0,76)" opacity="0.37"></path><path d="M 0 276.9367873479169 Q 450 505.6842187692249 600 296.6038701946909 Q 1050 607.3440143333389 1200 319.93056284787826 Q 1650 606.6574598022412 1800 346.27770466191566 Q 2250 538.36706919887 2400 307.3651755869233 L 2400 800 L 0 800 L 0 307.95133235941285 Z" transform="matrix(1,0,0,1,0,114)" opacity="0.68"></path><path d="M 0 276.9367873479169 Q 450 505.6842187692249 600 296.6038701946909 Q 1050 607.3440143333389 1200 319.93056284787826 Q 1650 606.6574598022412 1800 346.27770466191566 Q 2250 538.36706919887 2400 307.3651755869233 L 2400 800 L 0 800 L 0 307.95133235941285 Z" transform="matrix(1,0,0,1,0,152)" opacity="1.00"></path></g></svg>